<svg xmlns="http://www.w3.org/2000/svg" viewBox="0 0 1600 1000"><defs><linearGradient id="wall" x2="0" y2="1"><stop stop-color="#344035"/><stop offset="1" stop-color="#171b19"/></linearGradient><pattern id="slots" width="88" height="88" patternUnits="userSpaceOnUse"><path d="M12 0v88M76 0v88" stroke="#a6b28d" stroke-opacity=".08" stroke-width="5"/><circle cx="44" cy="44" r="3" fill="#c4cba6" fill-opacity=".2"/></pattern></defs><path fill="url(#wall)" d="M0 0h1600v1000H0z"/><path fill="url(#slots)" d="M0 0h1600v1000H0z"/><path fill="#101412" fill-opacity=".45" d="M0 0h250v1000H0zM1420 0h180v1000h-180z"/><g fill="#141816" stroke="#889679" stroke-opacity=".3" stroke-width="5"><path d="M340 255h900v12H340zM340 485h900v12H340zM340 715h900v12H340z"/></g><g fill="#909b80" fill-opacity=".62" stroke="#bac29e" stroke-opacity=".38" stroke-width="3"><path d="M410 208h92l48 25h160l44 20h90l21-18h102v20h-86l-23 20h-99l-44-20H545l-44-25h-91z"/><path d="M845 438h92l42 20h130l48 24h48v20h-54l-47-24H970l-41-20h-84z"/><path d="M375 668h76l47 22h90v22h-68l-42-22h-78v34h-25z"/></g><g fill="#68745f" fill-opacity=".8"><path d="M620 250h62l-13 49h-39zM1030 480h55l-8 46h-39zM535 710h54l-8 46h-39z"/></g><g stroke="#c1b78f" stroke-opacity=".2" stroke-width="5"><path d="M400 145v57m70-57v57m350-57v57m70-57v57m350-57v57M820 375v57m70-57v57m250-57v57M360 605v57m70-57v57m210-57v57"/></g><g fill="#d2bd82" fill-opacity=".28"><circle cx="420" cy="111" r="7"/><circle cx="800" cy="111" r="7"/><circle cx="1180" cy="111" r="7"/><circle cx="420" cy="841" r="7"/><circle cx="800" cy="841" r="7"/><circle cx="1180" cy="841" r="7"/></g><path d="M290 910h1020" stroke="#a8b294" stroke-opacity=".16" stroke-width="10"/></svg>